P2
3 2
255
0 10 20
30 40 50
